<svg width="49" height="49" viewBox="0 0 49 49" fill="none" xmlns="http://www.w3.org/2000/svg">
<g clip-path="url(#clip0_201_9)">
<path d="M39.5208 17.3713L40.5394 16.3505C41.3504 15.5391 42.4505 15.0832 43.5977 15.083C44.7449 15.0828 45.8452 15.5383 46.6565 16.3494C47.4678 17.1604 47.9237 18.2605 47.9239 19.4077C47.9241 20.5549 47.4686 21.6551 46.6576 22.4665L45.639 23.4873M39.5208 17.3713C39.5208 17.3713 39.6484 19.5361 41.5602 21.4479C43.472 23.3597 45.639 23.4873 45.639 23.4873M39.5208 17.3713L30.1488 26.7433C29.5108 27.3769 29.194 27.6959 28.9212 28.0457C28.6 28.4593 28.325 28.9037 28.0984 29.3789C27.907 29.7793 27.7662 30.2039 27.4824 31.0553L26.5738 33.7833L26.279 34.6655M45.639 23.4873L36.267 32.8593C35.629 33.4973 35.3122 33.8141 34.9624 34.0869C34.5488 34.4081 34.1044 34.683 33.6292 34.9096C33.2288 35.101 32.8042 35.2419 31.9528 35.5257L29.2248 36.4343L28.3426 36.7291M26.279 34.6655L25.9864 35.5499C25.9182 35.7551 25.9085 35.9753 25.9584 36.1858C26.0082 36.3963 26.1156 36.5888 26.2685 36.7417C26.4215 36.8947 26.6139 37.0021 26.8244 37.0519C27.0349 37.1017 27.2551 37.092 27.4604 37.0239L28.3426 36.7291M26.279 34.6655L28.3426 36.7291" stroke="white" stroke-width="3"/>
<path d="M17.125 28.2835H22.625M17.125 19.4835H31.425M17.125 37.0835H20.425M6.125 30.4835V21.6835C6.125 13.3873 6.125 9.2381 8.7034 6.6619C11.2796 4.0835 15.4288 4.0835 23.725 4.0835H28.125C36.4212 4.0835 40.5704 4.0835 43.1466 6.6619M45.725 30.4835C45.725 38.7797 45.725 42.9289 43.1466 45.5051M43.1466 45.5051C40.5704 48.0835 36.4212 48.0835 28.125 48.0835H23.725C15.4288 48.0835 11.2796 48.0835 8.7034 45.5051M43.1466 45.5051C45.2234 43.4305 45.626 40.3395 45.7052 34.8835" stroke="white" stroke-width="5" stroke-linecap="round"/>
</g>
<defs>
<clipPath id="clip0_201_9">
<rect width="49" height="49" fill="white"/>
</clipPath>
</defs>
</svg>
