<svg width="44" height="44" viewBox="0 0 44 44" fill="none" xmlns="http://www.w3.org/2000/svg">
<path d="M21.7708 36.6668C21.893 36.6668 22.0152 36.6362 22.1374 36.5751C22.2597 36.514 22.3513 36.4529 22.4124 36.3918L37.4458 21.3584C37.8124 20.9917 38.0801 20.5793 38.2488 20.1209C38.4174 19.6626 38.5012 19.2043 38.4999 18.7459C38.4999 18.257 38.4156 17.7907 38.2469 17.3471C38.0783 16.9034 37.8112 16.5141 37.4458 16.1792L29.6541 8.38758C29.318 8.02092 28.9281 7.75325 28.4844 7.58458C28.0408 7.41592 27.5757 7.33219 27.0893 7.33342C26.6309 7.33342 26.1726 7.41775 25.7143 7.58642C25.2559 7.75508 24.8434 8.02214 24.4768 8.38758L23.9726 8.89175L27.3643 12.3292C27.8226 12.757 28.1587 13.2459 28.3726 13.7959C28.5865 14.3459 28.6934 14.9265 28.6934 15.5376C28.6934 16.8209 28.2583 17.8983 27.3881 18.7698C26.5179 19.6412 25.4405 20.0763 24.1559 20.0751C23.5448 20.0751 22.9563 19.9681 22.3904 19.7542C21.8246 19.5404 21.3283 19.2195 20.9018 18.7918L17.4624 15.4001L9.44161 23.4209C9.34994 23.5126 9.28089 23.6122 9.23444 23.7198C9.188 23.8273 9.16539 23.941 9.16661 24.0608C9.16661 24.3052 9.25828 24.527 9.44161 24.7263C9.62494 24.9255 9.83883 25.0245 10.0833 25.0233C10.2055 25.0233 10.3277 24.9927 10.4499 24.9316C10.5722 24.8705 10.6638 24.8094 10.7249 24.7483L16.9583 18.5149L19.5249 21.0816L13.3374 27.3149C13.2458 27.4066 13.1767 27.5062 13.1303 27.6138C13.0838 27.7213 13.0612 27.8356 13.0624 27.9566C13.0624 28.201 13.1541 28.4149 13.3374 28.5983C13.5208 28.7816 13.7347 28.8733 13.9791 28.8733C14.1013 28.8733 14.2236 28.8427 14.3458 28.7816C14.468 28.7205 14.5597 28.6594 14.6208 28.5983L20.8541 22.4108L23.4208 24.9774L17.2333 31.2108C17.1416 31.2719 17.0726 31.3635 17.0261 31.4858C16.9797 31.608 16.9571 31.7302 16.9583 31.8524C16.9583 32.0969 17.0499 32.3108 17.2333 32.4941C17.4166 32.6774 17.6305 32.7691 17.8749 32.7691C17.9972 32.7691 18.1121 32.7459 18.2196 32.6994C18.3272 32.653 18.4262 32.5845 18.5166 32.4941L24.7499 26.3066L27.3166 28.8733L21.0833 35.1066C20.9916 35.1983 20.9226 35.2973 20.8761 35.4036C20.8297 35.5099 20.8071 35.6248 20.8083 35.7483C20.8083 35.9927 20.9079 36.2066 21.1071 36.3899C21.3063 36.5733 21.5276 36.6668 21.7708 36.6668ZM21.7249 40.3334C20.5944 40.3334 19.5934 39.9588 18.7219 39.2096C17.8505 38.4604 17.339 37.5211 17.1874 36.3918C16.1486 36.239 15.2777 35.8112 14.5749 35.1084C13.8722 34.4056 13.4444 33.5348 13.2916 32.4959C12.2527 32.3431 11.3892 31.9074 10.7011 31.1888C10.013 30.4701 9.59316 29.6072 9.44161 28.6001C8.2805 28.4473 7.33327 27.9431 6.59994 27.0876C5.86661 26.232 5.49994 25.2237 5.49994 24.0626C5.49994 23.4515 5.61483 22.8636 5.84461 22.2989C6.07439 21.7343 6.40255 21.2374 6.82911 20.8084L17.4624 10.2209L23.4666 16.2251C23.5277 16.3168 23.6194 16.3858 23.7416 16.4323C23.8638 16.4787 23.9861 16.5013 24.1083 16.5001C24.3833 16.5001 24.6124 16.4164 24.7958 16.2489C24.9791 16.0815 25.0708 15.8596 25.0708 15.5834C25.0708 15.4612 25.0476 15.339 25.0011 15.2168C24.9547 15.0945 24.8862 15.0029 24.7958 14.9417L18.2416 8.38758C17.9055 8.02092 17.5162 7.75325 17.0738 7.58458C16.6313 7.41592 16.1651 7.33219 15.6749 7.33342C15.2166 7.33342 14.7583 7.41775 14.2999 7.58642C13.8416 7.75508 13.4291 8.02214 13.0624 8.38758L6.59994 14.8959C6.32494 15.1709 6.09577 15.4917 5.91244 15.8584C5.72911 16.2251 5.60689 16.5918 5.54577 16.9584C5.48466 17.3251 5.48466 17.6997 5.54577 18.0823C5.60689 18.4648 5.72911 18.8235 5.91244 19.1584L3.25411 21.8168C2.73466 21.114 2.35272 20.3427 2.10827 19.5031C1.86383 18.6634 1.77216 17.8152 1.83327 16.9584C1.89439 16.1029 2.10827 15.2699 2.47494 14.4596C2.84161 13.6492 3.34577 12.9239 3.98744 12.2834L10.4499 5.82091C11.1833 5.11814 12.0009 4.58341 12.9029 4.21675C13.8049 3.85008 14.7289 3.66675 15.6749 3.66675C16.6222 3.66675 17.5468 3.85008 18.4488 4.21675C19.3508 4.58341 20.1526 5.11814 20.8541 5.82091L21.3583 6.32508L21.8624 5.82091C22.5958 5.11814 23.4134 4.58341 24.3154 4.21675C25.2174 3.85008 26.1414 3.66675 27.0874 3.66675C28.0347 3.66675 28.9593 3.85008 29.8613 4.21675C30.7633 4.58341 31.5651 5.11814 32.2666 5.82091L40.0124 13.5667C40.7152 14.2695 41.2499 15.0793 41.6166 15.9959C41.9833 16.9126 42.1666 17.8445 42.1666 18.7918C42.1666 19.739 41.9833 20.6636 41.6166 21.5656C41.2499 22.4676 40.7152 23.2694 40.0124 23.9709L24.9791 38.9584C24.5513 39.3862 24.0545 39.7223 23.4886 39.9668C22.9227 40.2112 22.3348 40.3334 21.7249 40.3334Z" fill="white"/>
</svg>
