<svg width="51" height="44" viewBox="0 0 51 44" fill="none" xmlns="http://www.w3.org/2000/svg">
<path d="M13.64 44C12.6762 44 11.8381 43.6537 11.1257 42.9611C10.4133 42.2685 10.0571 41.4537 10.0571 40.5167C10.0571 40.15 10.1518 39.732 10.3413 39.2627C10.5307 38.7933 10.7712 38.4169 11.0629 38.1333L12.5714 36.6667H5.02857C3.64572 36.6667 2.46149 36.1876 1.47589 35.2293C0.49029 34.2711 -0.00167192 33.1206 4.26874e-06 31.7778V4.88889C4.26874e-06 3.54445 0.492804 2.39311 1.4784 1.43489C2.464 0.47667 3.64739 -0.00162548 5.02857 4.15016e-06H45.2571C46.64 4.15016e-06 47.8242 0.479115 48.8098 1.43734C49.7954 2.39556 50.2874 3.54608 50.2857 4.88889V31.7778C50.2857 33.1222 49.7929 34.2736 48.8073 35.2318C47.8217 36.19 46.6383 36.6683 45.2571 36.6667H37.7143L39.2229 38.1333C39.5162 38.4185 39.7576 38.7852 39.947 39.2333C40.1364 39.6815 40.2302 40.1093 40.2286 40.5167C40.2286 41.4537 39.8724 42.2685 39.16 42.9611C38.4476 43.6537 37.6095 44 36.6457 44H13.64ZM5.02857 31.7778H45.2571V4.88889H5.02857V31.7778Z" fill="white"/>
</svg>
