<svg width="37" height="37" viewBox="0 0 37 37" fill="none" xmlns="http://www.w3.org/2000/svg">
<path fill-rule="evenodd" clip-rule="evenodd" d="M33.9167 7.19444C33.0989 7.19444 32.3147 7.51929 31.7364 8.09753C31.1582 8.67577 30.8333 9.46003 30.8333 10.2778V12.3333H37V10.2778C37 9.46003 36.6751 8.67577 36.0969 8.09753C35.5187 7.51929 34.7344 7.19444 33.9167 7.19444ZM37 14.3889H30.8333V31.3472L33.9167 35.9722L37 31.3472V14.3889ZM0 3.08333V33.9167C0 34.7344 0.32485 35.5187 0.903088 36.0969C1.48132 36.6751 2.26558 37 3.08333 37H25.6944C26.5122 37 27.2965 36.6751 27.8747 36.0969C28.4529 35.5187 28.7778 34.7344 28.7778 33.9167V3.08333C28.7778 2.26558 28.4529 1.48132 27.8747 0.903088C27.2965 0.32485 26.5122 0 25.6944 0H3.08333C2.26558 0 1.48132 0.32485 0.903088 0.903088C0.32485 1.48132 0 2.26558 0 3.08333ZM14.3889 9.25C14.3889 8.97742 14.4972 8.716 14.6899 8.52325C14.8827 8.33051 15.1441 8.22222 15.4167 8.22222H23.6389C23.9115 8.22222 24.1729 8.33051 24.3656 8.52325C24.5584 8.716 24.6667 8.97742 24.6667 9.25C24.6667 9.52258 24.5584 9.784 24.3656 9.97675C24.1729 10.1695 23.9115 10.2778 23.6389 10.2778H15.4167C15.1441 10.2778 14.8827 10.1695 14.6899 9.97675C14.4972 9.784 14.3889 9.52258 14.3889 9.25ZM15.4167 12.3333C15.1441 12.3333 14.8827 12.4416 14.6899 12.6344C14.4972 12.8271 14.3889 13.0885 14.3889 13.3611C14.3889 13.6337 14.4972 13.8951 14.6899 14.0879C14.8827 14.2806 15.1441 14.3889 15.4167 14.3889H23.6389C23.9115 14.3889 24.1729 14.2806 24.3656 14.0879C24.5584 13.8951 24.6667 13.6337 24.6667 13.3611C24.6667 13.0885 24.5584 12.8271 24.3656 12.6344C24.1729 12.4416 23.9115 12.3333 23.6389 12.3333H15.4167ZM14.3889 22.6111C14.3889 22.3385 14.4972 22.0771 14.6899 21.8844C14.8827 21.6916 15.1441 21.5833 15.4167 21.5833H23.6389C23.9115 21.5833 24.1729 21.6916 24.3656 21.8844C24.5584 22.0771 24.6667 22.3385 24.6667 22.6111C24.6667 22.8837 24.5584 23.1451 24.3656 23.3379C24.1729 23.5306 23.9115 23.6389 23.6389 23.6389H15.4167C15.1441 23.6389 14.8827 23.5306 14.6899 23.3379C14.4972 23.1451 14.3889 22.8837 14.3889 22.6111ZM15.4167 25.6944C15.1441 25.6944 14.8827 25.8027 14.6899 25.9955C14.4972 26.1882 14.3889 26.4496 14.3889 26.7222C14.3889 26.9948 14.4972 27.2562 14.6899 27.449C14.8827 27.6417 15.1441 27.75 15.4167 27.75H23.6389C23.9115 27.75 24.1729 27.6417 24.3656 27.449C24.5584 27.2562 24.6667 26.9948 24.6667 26.7222C24.6667 26.4496 24.5584 26.1882 24.3656 25.9955C24.1729 25.8027 23.9115 25.6944 23.6389 25.6944H15.4167ZM6.16667 22.6111V25.6944H9.25V22.6111H6.16667ZM5.13889 20.5556H10.2778C10.5504 20.5556 10.8118 20.6638 11.0045 20.8566C11.1973 21.0493 11.3056 21.3107 11.3056 21.5833V26.7222C11.3056 26.9948 11.1973 27.2562 11.0045 27.449C10.8118 27.6417 10.5504 27.75 10.2778 27.75H5.13889C4.86631 27.75 4.60489 27.6417 4.41214 27.449C4.21939 27.2562 4.11111 26.9948 4.11111 26.7222V21.5833C4.11111 21.3107 4.21939 21.0493 4.41214 20.8566C4.60489 20.6638 4.86631 20.5556 5.13889 20.5556ZM12.0322 9.97664C12.2194 9.7828 12.323 9.52318 12.3207 9.2537C12.3183 8.98422 12.2102 8.72644 12.0197 8.53588C11.8291 8.34532 11.5713 8.23723 11.3019 8.23489C11.0324 8.23255 10.7728 8.33614 10.5789 8.52336L7.19444 11.9078L5.86553 10.5789C5.67169 10.3917 5.41207 10.2881 5.14259 10.2904C4.87311 10.2928 4.61533 10.4009 4.42477 10.5914C4.23421 10.782 4.12612 11.0398 4.12378 11.3093C4.12144 11.5787 4.22503 11.8384 4.41225 12.0322L7.19444 14.8144L12.0322 9.97664Z" fill="white"/>
</svg>
