<svg width="43" height="39" viewBox="0 0 43 39" fill="none" xmlns="http://www.w3.org/2000/svg">
<path d="M41.4643 3.54545H33.7857V0.443182C33.7857 0.199432 33.6129 0 33.4018 0H30.7143C30.5031 0 30.3304 0.199432 30.3304 0.443182V3.54545H23.2277V0.443182C23.2277 0.199432 23.0549 0 22.8438 0H20.1562C19.9451 0 19.7723 0.199432 19.7723 0.443182V3.54545H12.6696V0.443182C12.6696 0.199432 12.4969 0 12.2857 0H9.59821C9.38705 0 9.21429 0.199432 9.21429 0.443182V3.54545H1.53571C0.686272 3.54545 0 4.33764 0 5.31818V37.2273C0 38.2078 0.686272 39 1.53571 39H41.4643C42.3137 39 43 38.2078 43 37.2273V5.31818C43 4.33764 42.3137 3.54545 41.4643 3.54545ZM39.5446 35.0114H3.45536V7.53409H9.21429V10.6364C9.21429 10.8801 9.38705 11.0795 9.59821 11.0795H12.2857C12.4969 11.0795 12.6696 10.8801 12.6696 10.6364V7.53409H19.7723V10.6364C19.7723 10.8801 19.9451 11.0795 20.1562 11.0795H22.8438C23.0549 11.0795 23.2277 10.8801 23.2277 10.6364V7.53409H30.3304V10.6364C30.3304 10.8801 30.5031 11.0795 30.7143 11.0795H33.4018C33.6129 11.0795 33.7857 10.8801 33.7857 10.6364V7.53409H39.5446V35.0114ZM16.8929 18.6136H8.0625C7.85134 18.6136 7.67857 18.8131 7.67857 19.0568V21.7159C7.67857 21.9597 7.85134 22.1591 8.0625 22.1591H16.8929C17.104 22.1591 17.2768 21.9597 17.2768 21.7159V19.0568C17.2768 18.8131 17.104 18.6136 16.8929 18.6136ZM16.8929 26.1477H8.0625C7.85134 26.1477 7.67857 26.3472 7.67857 26.5909V29.25C7.67857 29.4937 7.85134 29.6932 8.0625 29.6932H16.8929C17.104 29.6932 17.2768 29.4937 17.2768 29.25V26.5909C17.2768 26.3472 17.104 26.1477 16.8929 26.1477ZM31.6837 16.3202L26.7118 24.2808L24.1779 20.2313C24.0339 19.9986 23.8036 19.8656 23.5588 19.8656H20.9241C20.6122 19.8656 20.4298 20.2756 20.6122 20.5692L26.0879 29.3331C26.1586 29.4463 26.2516 29.5386 26.3593 29.6022C26.4669 29.6658 26.5861 29.699 26.707 29.699C26.828 29.699 26.9472 29.6658 27.0548 29.6022C27.1624 29.5386 27.2554 29.4463 27.3261 29.3331L35.2446 16.6636C35.427 16.37 35.2446 15.9601 34.9327 15.9601H32.298C32.058 15.9545 31.8277 16.093 31.6837 16.3202Z" fill="#F8F8F8"/>
</svg>
