<svg width="52" height="49" viewBox="0 0 52 49" fill="none" xmlns="http://www.w3.org/2000/svg">
<path d="M10.0354 40.3717C10.0354 42.0388 10.5485 43.6376 11.462 44.8164C12.3754 45.9952 13.6142 46.6574 14.906 46.6574C16.1977 46.6574 17.4366 45.9952 18.35 44.8164C19.2634 43.6376 19.7766 42.0388 19.7766 40.3717C19.7766 38.7046 19.2634 37.1058 18.35 35.927C17.4366 34.7482 16.1977 34.0859 14.906 34.0859C13.6142 34.0859 12.3754 34.7482 11.462 35.927C10.5485 37.1058 10.0354 38.7046 10.0354 40.3717ZM34.3883 40.3717C34.3883 42.0388 34.9015 43.6376 35.8149 44.8164C36.7283 45.9952 37.9671 46.6574 39.2589 46.6574C40.5506 46.6574 41.7895 45.9952 42.7029 44.8164C43.6163 43.6376 44.1295 42.0388 44.1295 40.3717C44.1295 38.7046 43.6163 37.1058 42.7029 35.927C41.7895 34.7482 40.5506 34.0859 39.2589 34.0859C37.9671 34.0859 36.7283 34.7482 35.8149 35.927C34.9015 37.1058 34.3883 38.7046 34.3883 40.3717Z" stroke="white" stroke-width="4" stroke-linecap="round" stroke-linejoin="round"/>
<path d="M10.0354 40.3722H5.16478V27.8007M2.72949 2.65771H29.5177V40.3722M19.7765 40.3722H34.3883M44.1294 40.3722H49V21.515M49 21.515H29.5177M49 21.515L41.6941 5.80059H29.5177M5.16478 15.2292H14.9059" stroke="white" stroke-width="5" stroke-linecap="round" stroke-linejoin="round"/>
</svg>
