<svg width="78" height="78" viewBox="0 0 78 78" fill="none" xmlns="http://www.w3.org/2000/svg">
<path d="M39 0C17.472 0 0 17.472 0 39C0 60.528 17.472 78 39 78C60.528 78 78 60.528 78 39C78 17.472 60.528 0 39 0ZM39 15.6C46.527 15.6 52.65 21.723 52.65 29.25C52.65 36.777 46.527 42.9 39 42.9C31.473 42.9 25.35 36.777 25.35 29.25C25.35 21.723 31.473 15.6 39 15.6ZM39 70.2C31.083 70.2 21.723 67.002 15.054 58.968C21.8853 53.6083 30.3171 50.6953 39 50.6953C47.6829 50.6953 56.1147 53.6083 62.946 58.968C56.277 67.002 46.917 70.2 39 70.2Z" fill="white"/>
</svg>
